<mxfile host="app.diagrams.net" modified="2021-05-08T19:31:29.783Z" agent="5.0 (Macintosh; Intel Mac OS X 10_15_7) AppleWebKit/605.1.15 (KHTML, like Gecko) Version/14.0.3 Safari/605.1.15" etag="PDwW7Eza_C09Q1wQtHCa" version="14.6.9" type="github">
  <diagram name="Page-1" id="6133507b-19e7-1e82-6fc7-422aa6c4b21f">
    <mxGraphModel dx="946" dy="662" grid="1" gridSize="10" guides="1" tooltips="1" connect="1" arrows="1" fold="1" page="1" pageScale="1" pageWidth="1100" pageHeight="850" background="#ffffff" math="0" shadow="0">
      <root>
        <mxCell id="0" />
        <mxCell id="1" parent="0" />
        <mxCell id="m3jH17okZTk1eyl1DwgT-1" value="Student" style="swimlane;fontStyle=0;childLayout=stackLayout;horizontal=1;startSize=26;fillColor=none;horizontalStack=0;resizeParent=1;resizeParentMax=0;resizeLast=0;collapsible=1;marginBottom=0;" vertex="1" parent="1">
          <mxGeometry x="120" y="200" width="140" height="104" as="geometry" />
        </mxCell>
        <mxCell id="m3jH17okZTk1eyl1DwgT-2" value="Imię" style="text;strokeColor=none;fillColor=none;align=left;verticalAlign=top;spacingLeft=4;spacingRight=4;overflow=hidden;rotatable=0;points=[[0,0.5],[1,0.5]];portConstraint=eastwest;" vertex="1" parent="m3jH17okZTk1eyl1DwgT-1">
          <mxGeometry y="26" width="140" height="26" as="geometry" />
        </mxCell>
        <mxCell id="m3jH17okZTk1eyl1DwgT-3" value="Nazwisko" style="text;strokeColor=none;fillColor=none;align=left;verticalAlign=top;spacingLeft=4;spacingRight=4;overflow=hidden;rotatable=0;points=[[0,0.5],[1,0.5]];portConstraint=eastwest;" vertex="1" parent="m3jH17okZTk1eyl1DwgT-1">
          <mxGeometry y="52" width="140" height="26" as="geometry" />
        </mxCell>
        <mxCell id="m3jH17okZTk1eyl1DwgT-4" value="Nr. indeksu" style="text;strokeColor=none;fillColor=none;align=left;verticalAlign=top;spacingLeft=4;spacingRight=4;overflow=hidden;rotatable=0;points=[[0,0.5],[1,0.5]];portConstraint=eastwest;" vertex="1" parent="m3jH17okZTk1eyl1DwgT-1">
          <mxGeometry y="78" width="140" height="26" as="geometry" />
        </mxCell>
        <mxCell id="m3jH17okZTk1eyl1DwgT-8" value="Rodzaj&#xa;studiów" style="swimlane;fontStyle=0;childLayout=stackLayout;horizontal=1;startSize=26;fillColor=none;horizontalStack=0;resizeParent=1;resizeParentMax=0;resizeLast=0;collapsible=1;marginBottom=0;" vertex="1" parent="1">
          <mxGeometry x="110" y="430" width="140" height="52" as="geometry" />
        </mxCell>
        <mxCell id="m3jH17okZTk1eyl1DwgT-9" value="Nazwa" style="text;strokeColor=none;fillColor=none;align=left;verticalAlign=top;spacingLeft=4;spacingRight=4;overflow=hidden;rotatable=0;points=[[0,0.5],[1,0.5]];portConstraint=eastwest;" vertex="1" parent="m3jH17okZTk1eyl1DwgT-8">
          <mxGeometry y="26" width="140" height="26" as="geometry" />
        </mxCell>
        <mxCell id="m3jH17okZTk1eyl1DwgT-12" value="" style="fontSize=12;html=1;endArrow=ERone;startArrow=ERmany;rounded=1;startFill=0;exitX=0.421;exitY=1.038;exitDx=0;exitDy=0;exitPerimeter=0;entryX=0.5;entryY=0;entryDx=0;entryDy=0;endFill=0;" edge="1" parent="1" source="m3jH17okZTk1eyl1DwgT-4" target="m3jH17okZTk1eyl1DwgT-8">
          <mxGeometry width="100" height="100" relative="1" as="geometry">
            <mxPoint x="270" y="550" as="sourcePoint" />
            <mxPoint x="370" y="450" as="targetPoint" />
          </mxGeometry>
        </mxCell>
        <mxCell id="m3jH17okZTk1eyl1DwgT-13" value="Praca dyplomowa" style="swimlane;fontStyle=0;childLayout=stackLayout;horizontal=1;startSize=26;fillColor=none;horizontalStack=0;resizeParent=1;resizeParentMax=0;resizeLast=0;collapsible=1;marginBottom=0;" vertex="1" parent="1">
          <mxGeometry x="380" y="200" width="200" height="208" as="geometry" />
        </mxCell>
        <mxCell id="m3jH17okZTk1eyl1DwgT-14" value="Temat pracy" style="text;strokeColor=none;fillColor=none;align=left;verticalAlign=top;spacingLeft=4;spacingRight=4;overflow=hidden;rotatable=0;points=[[0,0.5],[1,0.5]];portConstraint=eastwest;" vertex="1" parent="m3jH17okZTk1eyl1DwgT-13">
          <mxGeometry y="26" width="200" height="26" as="geometry" />
        </mxCell>
        <mxCell id="m3jH17okZTk1eyl1DwgT-15" value="Termin obrony" style="text;strokeColor=none;fillColor=none;align=left;verticalAlign=top;spacingLeft=4;spacingRight=4;overflow=hidden;rotatable=0;points=[[0,0.5],[1,0.5]];portConstraint=eastwest;" vertex="1" parent="m3jH17okZTk1eyl1DwgT-13">
          <mxGeometry y="52" width="200" height="26" as="geometry" />
        </mxCell>
        <mxCell id="m3jH17okZTk1eyl1DwgT-16" value="Ocena promotora" style="text;strokeColor=none;fillColor=none;align=left;verticalAlign=top;spacingLeft=4;spacingRight=4;overflow=hidden;rotatable=0;points=[[0,0.5],[1,0.5]];portConstraint=eastwest;" vertex="1" parent="m3jH17okZTk1eyl1DwgT-13">
          <mxGeometry y="78" width="200" height="26" as="geometry" />
        </mxCell>
        <mxCell id="m3jH17okZTk1eyl1DwgT-37" value="Komentarz promotora" style="text;strokeColor=none;fillColor=none;align=left;verticalAlign=top;spacingLeft=4;spacingRight=4;overflow=hidden;rotatable=0;points=[[0,0.5],[1,0.5]];portConstraint=eastwest;" vertex="1" parent="m3jH17okZTk1eyl1DwgT-13">
          <mxGeometry y="104" width="200" height="26" as="geometry" />
        </mxCell>
        <mxCell id="m3jH17okZTk1eyl1DwgT-46" value="Ocena recenzenta/ów" style="text;strokeColor=none;fillColor=none;align=left;verticalAlign=top;spacingLeft=4;spacingRight=4;overflow=hidden;rotatable=0;points=[[0,0.5],[1,0.5]];portConstraint=eastwest;" vertex="1" parent="m3jH17okZTk1eyl1DwgT-13">
          <mxGeometry y="130" width="200" height="26" as="geometry" />
        </mxCell>
        <mxCell id="m3jH17okZTk1eyl1DwgT-47" value="Komentarz recenzenta/ów" style="text;strokeColor=none;fillColor=none;align=left;verticalAlign=top;spacingLeft=4;spacingRight=4;overflow=hidden;rotatable=0;points=[[0,0.5],[1,0.5]];portConstraint=eastwest;" vertex="1" parent="m3jH17okZTk1eyl1DwgT-13">
          <mxGeometry y="156" width="200" height="26" as="geometry" />
        </mxCell>
        <mxCell id="m3jH17okZTk1eyl1DwgT-48" value="Ocena końcowa" style="text;strokeColor=none;fillColor=none;align=left;verticalAlign=top;spacingLeft=4;spacingRight=4;overflow=hidden;rotatable=0;points=[[0,0.5],[1,0.5]];portConstraint=eastwest;" vertex="1" parent="m3jH17okZTk1eyl1DwgT-13">
          <mxGeometry y="182" width="200" height="26" as="geometry" />
        </mxCell>
        <mxCell id="m3jH17okZTk1eyl1DwgT-17" value="" style="fontSize=12;html=1;endArrow=ERzeroToOne;startArrow=ERmany;rounded=1;startFill=0;exitX=1;exitY=0.5;exitDx=0;exitDy=0;entryX=0;entryY=0.5;entryDx=0;entryDy=0;endFill=1;" edge="1" parent="1" source="m3jH17okZTk1eyl1DwgT-2" target="m3jH17okZTk1eyl1DwgT-14">
          <mxGeometry width="100" height="100" relative="1" as="geometry">
            <mxPoint x="290.00000000000006" y="289.99800000000005" as="sourcePoint" />
            <mxPoint x="291.06" y="345.01" as="targetPoint" />
          </mxGeometry>
        </mxCell>
        <mxCell id="m3jH17okZTk1eyl1DwgT-32" value="Pisze" style="edgeLabel;html=1;align=center;verticalAlign=middle;resizable=0;points=[];" vertex="1" connectable="0" parent="m3jH17okZTk1eyl1DwgT-17">
          <mxGeometry x="-0.5" y="2" relative="1" as="geometry">
            <mxPoint x="24" y="-6" as="offset" />
          </mxGeometry>
        </mxCell>
        <mxCell id="m3jH17okZTk1eyl1DwgT-18" value="Promotor" style="swimlane;fontStyle=0;childLayout=stackLayout;horizontal=1;startSize=26;fillColor=none;horizontalStack=0;resizeParent=1;resizeParentMax=0;resizeLast=0;collapsible=1;marginBottom=0;" vertex="1" parent="1">
          <mxGeometry x="680" y="200" width="140" height="104" as="geometry" />
        </mxCell>
        <mxCell id="m3jH17okZTk1eyl1DwgT-19" value="Imię" style="text;strokeColor=none;fillColor=none;align=left;verticalAlign=top;spacingLeft=4;spacingRight=4;overflow=hidden;rotatable=0;points=[[0,0.5],[1,0.5]];portConstraint=eastwest;" vertex="1" parent="m3jH17okZTk1eyl1DwgT-18">
          <mxGeometry y="26" width="140" height="26" as="geometry" />
        </mxCell>
        <mxCell id="m3jH17okZTk1eyl1DwgT-20" value="Nazwisko" style="text;strokeColor=none;fillColor=none;align=left;verticalAlign=top;spacingLeft=4;spacingRight=4;overflow=hidden;rotatable=0;points=[[0,0.5],[1,0.5]];portConstraint=eastwest;" vertex="1" parent="m3jH17okZTk1eyl1DwgT-18">
          <mxGeometry y="52" width="140" height="26" as="geometry" />
        </mxCell>
        <mxCell id="m3jH17okZTk1eyl1DwgT-21" value="Stopień naukowy" style="text;strokeColor=none;fillColor=none;align=left;verticalAlign=top;spacingLeft=4;spacingRight=4;overflow=hidden;rotatable=0;points=[[0,0.5],[1,0.5]];portConstraint=eastwest;" vertex="1" parent="m3jH17okZTk1eyl1DwgT-18">
          <mxGeometry y="78" width="140" height="26" as="geometry" />
        </mxCell>
        <mxCell id="m3jH17okZTk1eyl1DwgT-22" value="Słowa kluczowe" style="swimlane;fontStyle=0;childLayout=stackLayout;horizontal=1;startSize=26;fillColor=none;horizontalStack=0;resizeParent=1;resizeParentMax=0;resizeLast=0;collapsible=1;marginBottom=0;" vertex="1" parent="1">
          <mxGeometry x="391" y="520" width="140" height="52" as="geometry" />
        </mxCell>
        <mxCell id="m3jH17okZTk1eyl1DwgT-23" value="Nazwa" style="text;strokeColor=none;fillColor=none;align=left;verticalAlign=top;spacingLeft=4;spacingRight=4;overflow=hidden;rotatable=0;points=[[0,0.5],[1,0.5]];portConstraint=eastwest;" vertex="1" parent="m3jH17okZTk1eyl1DwgT-22">
          <mxGeometry y="26" width="140" height="26" as="geometry" />
        </mxCell>
        <mxCell id="m3jH17okZTk1eyl1DwgT-29" value="" style="fontSize=12;html=1;endArrow=ERoneToMany;startArrow=ERoneToMany;rounded=1;startFill=0;exitX=0.5;exitY=0;exitDx=0;exitDy=0;endFill=0;" edge="1" parent="1" source="m3jH17okZTk1eyl1DwgT-22">
          <mxGeometry width="100" height="100" relative="1" as="geometry">
            <mxPoint x="462" y="400" as="sourcePoint" />
            <mxPoint x="461" y="410" as="targetPoint" />
          </mxGeometry>
        </mxCell>
        <mxCell id="m3jH17okZTk1eyl1DwgT-30" value="" style="fontSize=12;html=1;endArrow=ERmandOne;startArrow=ERzeroToMany;rounded=1;startFill=1;exitX=1;exitY=0.5;exitDx=0;exitDy=0;entryX=0;entryY=0.5;entryDx=0;entryDy=0;endFill=0;" edge="1" parent="1" source="m3jH17okZTk1eyl1DwgT-14" target="m3jH17okZTk1eyl1DwgT-19">
          <mxGeometry width="100" height="100" relative="1" as="geometry">
            <mxPoint x="270" y="249" as="sourcePoint" />
            <mxPoint x="390" y="249" as="targetPoint" />
          </mxGeometry>
        </mxCell>
        <mxCell id="m3jH17okZTk1eyl1DwgT-33" value="Określają" style="text;html=1;align=center;verticalAlign=middle;resizable=0;points=[];autosize=1;strokeColor=none;rotation=-90;" vertex="1" parent="1">
          <mxGeometry x="414" y="462" width="70" height="20" as="geometry" />
        </mxCell>
        <mxCell id="m3jH17okZTk1eyl1DwgT-34" value="Opisuje stopień" style="text;html=1;align=center;verticalAlign=middle;resizable=0;points=[];autosize=1;strokeColor=none;rotation=-90;" vertex="1" parent="1">
          <mxGeometry x="117" y="362" width="100" height="20" as="geometry" />
        </mxCell>
        <mxCell id="m3jH17okZTk1eyl1DwgT-36" value="Nadzoruje" style="edgeLabel;html=1;align=center;verticalAlign=middle;resizable=0;points=[];" vertex="1" connectable="0" parent="1">
          <mxGeometry x="351" y="242" as="geometry">
            <mxPoint x="276" y="-13" as="offset" />
          </mxGeometry>
        </mxCell>
        <mxCell id="m3jH17okZTk1eyl1DwgT-39" value="Recenzent" style="swimlane;fontStyle=0;childLayout=stackLayout;horizontal=1;startSize=26;fillColor=none;horizontalStack=0;resizeParent=1;resizeParentMax=0;resizeLast=0;collapsible=1;marginBottom=0;" vertex="1" parent="1">
          <mxGeometry x="414" y="11" width="140" height="104" as="geometry" />
        </mxCell>
        <mxCell id="m3jH17okZTk1eyl1DwgT-40" value="Imię" style="text;strokeColor=none;fillColor=none;align=left;verticalAlign=top;spacingLeft=4;spacingRight=4;overflow=hidden;rotatable=0;points=[[0,0.5],[1,0.5]];portConstraint=eastwest;" vertex="1" parent="m3jH17okZTk1eyl1DwgT-39">
          <mxGeometry y="26" width="140" height="26" as="geometry" />
        </mxCell>
        <mxCell id="m3jH17okZTk1eyl1DwgT-41" value="Nazwisko" style="text;strokeColor=none;fillColor=none;align=left;verticalAlign=top;spacingLeft=4;spacingRight=4;overflow=hidden;rotatable=0;points=[[0,0.5],[1,0.5]];portConstraint=eastwest;" vertex="1" parent="m3jH17okZTk1eyl1DwgT-39">
          <mxGeometry y="52" width="140" height="26" as="geometry" />
        </mxCell>
        <mxCell id="m3jH17okZTk1eyl1DwgT-42" value="Stopień naukowy" style="text;strokeColor=none;fillColor=none;align=left;verticalAlign=top;spacingLeft=4;spacingRight=4;overflow=hidden;rotatable=0;points=[[0,0.5],[1,0.5]];portConstraint=eastwest;" vertex="1" parent="m3jH17okZTk1eyl1DwgT-39">
          <mxGeometry y="78" width="140" height="26" as="geometry" />
        </mxCell>
        <mxCell id="m3jH17okZTk1eyl1DwgT-43" value="" style="fontSize=12;html=1;endArrow=ERoneToMany;startArrow=ERzeroToMany;rounded=1;startFill=1;entryX=0.479;entryY=1.154;entryDx=0;entryDy=0;entryPerimeter=0;exitX=0.5;exitY=0;exitDx=0;exitDy=0;" edge="1" parent="1" source="m3jH17okZTk1eyl1DwgT-13" target="m3jH17okZTk1eyl1DwgT-42">
          <mxGeometry width="100" height="100" relative="1" as="geometry">
            <mxPoint x="477" y="160" as="sourcePoint" />
            <mxPoint x="479.5" y="130" as="targetPoint" />
          </mxGeometry>
        </mxCell>
        <mxCell id="m3jH17okZTk1eyl1DwgT-45" value="Recenzuje" style="text;html=1;align=center;verticalAlign=middle;resizable=0;points=[];autosize=1;strokeColor=none;rotation=-90;" vertex="1" parent="1">
          <mxGeometry x="435" y="152" width="70" height="20" as="geometry" />
        </mxCell>
      </root>
    </mxGraphModel>
  </diagram>
</mxfile>
